<svg data-v-6805eed4="" version="1.0" xmlns="http://www.w3.org/2000/svg"
     width="100%" height="100%" viewBox="0 0 340.000000 250.000000" preserveAspectRatio="xMidYMid meet"
     color-interpolation-filters="sRGB" style="margin: auto;">
    <rect data-v-6805eed4="" x="0" y="0" width="100%" height="100%" fill="#4d4f53" fill-opacity="1"
          class="background"></rect>
    <rect data-v-6805eed4="" x="0" y="0" width="100%" height="100%" fill="url(#watermark)" fill-opacity="1"
          class="watermarklayer"></rect>
    <g data-v-6805eed4="" fill="#ffffff" class="icon-text-wrapper icon-svg-group iconsvg"
       transform="translate(105.69029998779297,58.67010498046875)">
        <g class="iconsvg-imagesvg" transform="translate(34.30970001220703,52.76511764526367)">
            <g>
                <rect fill="#ffffff" fill-opacity="0" stroke-width="2" x="0" y="0" width="60" height="45.23488212543632"
                      class="image-rect"></rect>
                <svg filter="url(#colors2427697375)" x="0" y="0" width="60" height="45.23488212543632"
                     filtersec="colorsf7639946848" class="image-svg-svg primary" style="overflow: visible;">
                    <svg xmlns="http://www.w3.org/2000/svg"
                         viewBox="0.001999996602535248 -0.003997802734375 52.34000015258789 39.459999084472656">
                        <path transform="translate(0.07200000000000001 37.29600000000001)"
                              d="M5.47 2.16Q3.10 2.16 1.51-0.07Q-0.07-2.30-0.07-5.33L-0.07-5.33Q-0.07-7.92 1.08-11.81Q2.23-15.70 3.78-18.58Q5.33-21.46 6.48-21.46L6.48-21.46Q6.98-21.46 8.03-20.92Q9.07-20.38 9.86-19.58L9.86-19.58Q8.35-17.35 6.73-13.18Q5.11-9.00 5.11-5.98L5.11-5.98Q5.11-4.61 5.51-3.13Q5.90-1.66 7.27-1.66L7.27-1.66Q9.94-1.66 13.64-7.60Q17.35-13.54 20.02-19.66L20.02-19.66Q24.34-18.94 24.34-17.21L24.34-17.21Q24.34-17.06 23.47-15.12L23.47-15.12Q21.96-11.59 20.88-8.57Q19.80-5.54 19.80-3.31L19.80-3.31Q19.80-0.79 21.74-0.79L21.74-0.79Q23.26-0.79 25.38-2.20Q27.50-3.60 29.74-6.23Q31.97-8.86 33.62-12.31L33.62-12.31L34.70-11.45Q33.12-7.56 30.60-4.46Q28.08-1.37 25.16 0.40Q22.25 2.16 19.58 2.16L19.58 2.16Q16.42 2.16 15.52-0.04Q14.62-2.23 14.62-5.90L14.62-5.90Q12.17-2.16 10.01 0Q7.85 2.16 5.47 2.16L5.47 2.16ZM46.01-30.31Q44.50-30.31 43.45-31.03Q42.41-31.75 42.41-33.12L42.41-33.12Q42.41-34.78 44.24-36.04Q46.08-37.30 48.17-37.30L48.17-37.30Q51.26-37.30 51.26-34.63L51.26-34.63Q51.26-33.12 49.61-31.72Q47.95-30.31 46.01-30.31L46.01-30.31ZM37.51 2.16Q34.49 2.16 32.83 0.36Q31.18-1.44 31.18-4.25L31.18-4.25Q31.18-7.13 32.80-12.06Q34.42-16.99 36.90-20.74Q39.38-24.48 41.90-24.48L41.90-24.48Q42.84-24.48 43.45-23.94Q44.06-23.40 44.06-22.39L44.06-22.39Q44.06-21.74 43.49-20.63Q42.91-19.51 41.62-17.42L41.62-17.42Q39.31-13.61 37.98-10.69Q36.65-7.78 36.65-5.18L36.65-5.18Q36.65-2.95 37.44-2.16Q38.23-1.37 39.89-1.37L39.89-1.37Q45.58-1.37 51.19-12.38L51.19-12.38L52.27-11.23Q49.75-4.90 45.86-1.37Q41.98 2.16 37.51 2.16L37.51 2.16Z"></path>
                    </svg>
                </svg>
                <defs>
                    <filter id="colors2427697375">
                        <feColorMatrix type="matrix"
                                       values="0 0 0 0 0.99609375  0 0 0 0 0.99609375  0 0 0 0 0.99609375  0 0 0 1 0"
                                       class="icon-fecolormatrix"></feColorMatrix>
                    </filter>
                    <filter id="colorsf7639946848">
                        <feColorMatrix type="matrix"
                                       values="0 0 0 0 0.99609375  0 0 0 0 0.99609375  0 0 0 0 0.99609375  0 0 0 1 0"
                                       class="icon-fecolormatrix"></feColorMatrix>
                    </filter>
                    <filter id="colorsb8270287728">
                        <feColorMatrix type="matrix" values="0 0 0 0 0  0 0 0 0 0  0 0 0 0 0  0 0 0 1 0"
                                       class="icon-fecolormatrix"></feColorMatrix>
                    </filter>
                </defs>
            </g>
        </g>
        <g transform="translate(0,0)">
            <g data-gra="path-name" fill-rule="" class="tp-name iconsvg-namesvg">
                <g transform="scale(5.179999999999996)">
                    <g>
                        <path d="M7.35 3.64Q3.83 3.64 1.72 1.46-0.39-0.72-0.39-4.94L-0.39-4.94Q-0.39-9.1 1.72-13.07 3.83-17.03 7.21-19.5 10.6-21.97 14.04-21.97L14.04-21.97Q16.64-21.97 17.91-20.67 19.18-19.37 19.18-17.42L19.18-17.42Q19.18-15.47 18.23-13.81 17.29-12.16 15.93-12.16L15.93-12.16Q14.69-12.16 13.91-13.39L13.91-13.39Q14.69-13.91 15.34-15.21 15.99-16.51 15.99-18.27L15.99-18.27Q15.99-19.37 14.76-19.37L14.76-19.37Q12.68-19.37 10.27-16.9 7.87-14.43 6.24-10.92 4.62-7.41 4.62-4.55L4.62-4.55Q4.62-2.47 5.66-1.07 6.7 0.33 9.23 0.33L9.23 0.33Q11.7 0.33 14.4-1.1 17.09-2.54 19.44-5.17 21.78-7.8 23.14-11.25L23.14-11.25 24.44-10.08Q22.88-6.17 20.12-3.06 17.36 0.07 13.97 1.85 10.6 3.64 7.35 3.64L7.35 3.64Z"
                              transform="translate(0.39000001549720764, 21.969999313354492)"></path>
                    </g> <!----> <!----> <!----> <!----> <!----> <!----> <!---->
                </g>
            </g> <!---->
        </g>
    </g>
    <defs v-gra="od"></defs>
</svg>