<?xml version="1.0" encoding="utf-8"?>
<svg version="1.1" id="图层_1" x="0px" y="0px" viewBox="0 0 128 128" xmlns="http://www.w3.org/2000/svg">
  <style type="text/css">.st0 { fill: none; }
.st1 { display: none; }
.st2 { fill: rgb(10, 112, 204); }
.st3 { fill: rgb(229, 1, 18); }
.st4 { stroke: rgb(0, 0, 0); stroke-width: 0.116; fill: rgb(255, 255, 255); }
.st5 { display: none; fill: url("#SVGID_1_"); }</style>
  <g id="shape_Bpw7oTWsNP" transform="matrix(0.803459, 0.000499, 0.001883, 0.663673, 4.193113, 6.51819)" style="">
    <g>
      <rect x="-10" y="-10" class="st1" width="168.3" height="59.2"/>
      <g>
        <path class="st2" d="M111.3,0C99,0,86.5,0.9,73.8,2.6c-12.8,2-25.5,3-38.2,3C23.7,5.6,11.8,4.7,0,2.8v36.3h15.6V20.4 c6.7,0.5,13.3,0.8,20,0.8c13.3,0,26.9-1,40.5-3.1c12-1.6,23.9-2.5,35.2-2.5c7.3,0,14.4,0.4,21.4,1v22.6h15.6l0.1-36.3 C136.2,0.9,123.8,0,111.3,0z"/>
      </g>
    </g>
  </g>
  <g id="shape_It6hvyKijE" transform="matrix(0.799756, 0, 0, 0.840252, 4.632437, 80.845398)" style="">
    <g>
      <rect x="-10" y="-10" class="st1" width="168.3" height="69.4"/>
      <g>
        <polygon class="st3" points="132.7,8.5 74.2,32.5 15.7,8.5 15.7,0 0,0 0,19 74.2,49.4 148.3,19 148.3,0 132.7,0 &#9;&#9;&#9;"/>
      </g>
    </g>
  </g>
  <g id="shape_kWT9WDwXf4" transform="matrix(0.472417, 0, 0, 0.501865, -29.50885, -67.517982)">
    <g>
      <g transform="translate(70.32489999999999, 0)">
        <path class="st4" d="M11.81 0L0.21 0L19.50-46.61L30.89-46.61L50.17 0L38.57 0L34.03-10.76L16.35-10.76L11.81 0ZM31.87-19.08L25.23-35.36L18.59-19.08L31.87-19.08Z" transform="translate(0 269.66692) " fill="#000000" stroke="#000000" stroke-width="0.116" ></path>
        <path class="st4" d="M14.67 0L4.75 0L4.75-46.61L14.67-46.61L14.67 0Z" transform="translate(50.45336 269.66692) " fill="#000000" stroke="#000000" stroke-width="0.116" ></path>
        <path class="st4" d="M22.64-17.68L14.67-17.68L14.67 0L4.75 0L4.75-46.61L27.53-46.61Q37.32-46.61 41.16-44.09L41.16-44.09Q43.81-42.42 45.25-39.66Q46.68-36.90 46.68-33.61L46.68-33.61Q46.68-26.97 43.33-23.34L43.33-23.34Q41.23-21.17 37.81-20.06L37.81-20.06Q40.53-19.08 41.93-17.99Q43.33-16.91 44.44-14.81L44.44-14.81Q45.28-13.14 45.67-11.60Q46.05-10.06 46.26-7.06L46.26-7.06Q46.68-2.03 47.38 0L47.38 0L36.27 0Q35.78-1.61 35.22-6.64L35.22-6.64Q34.87-10.69 33.79-12.86Q32.70-15.02 30.54-16.28L30.54-16.28Q27.81-17.75 22.64-17.68L22.64-17.68ZM14.67-38.29L14.67-26.00L28.58-26.00Q32.07-26.00 33.54-27.04L33.54-27.04Q35.78-28.58 35.78-32.42L35.78-32.42Q35.78-36.69 32.42-37.87L32.42-37.87Q31.24-38.29 28.58-38.29L28.58-38.29L14.67-38.29Z" transform="translate(69.81012000000001 269.66692) " fill="#000000" stroke="#000000" stroke-width="0.116" ></path>
        <path class="st4" d="M4.19-46.61L14.05-46.61L14.05-18.66Q14.05-15.30 14.60-13.45Q15.16-11.60 16.49-10.27L16.49-10.27Q19.43-7.41 24.67-7.41L24.67-7.41Q28.02-7.41 30.50-8.56Q32.98-9.71 33.96-11.67L33.96-11.67Q34.94-13.63 34.94-18.66L34.94-18.66L34.94-46.61L44.86-46.61L44.86-19.15Q44.86-13.70 43.71-10.17Q42.56-6.64 40.18-4.47L40.18-4.47Q34.66 0.35 24.53 0.35L24.53 0.35Q13.70 0.35 8.73-4.40L8.73-4.40Q6.15-6.85 5.17-9.89Q4.19-12.93 4.19-18.45L4.19-18.45L4.19-46.61Z" transform="translate(119.70444 269.66692) " fill="#000000" stroke="#000000" stroke-width="0.116" ></path>
        <path class="st4" d="M14.67 0L4.75 0L4.75-46.61L14.67-46.61L14.67 0Z" transform="translate(168.83008 269.66692) " fill="#000000" stroke="#000000" stroke-width="0.116" ></path>
        <path class="st4" d="M27.95 0L4.54 0L4.54-8.32L25.86-8.32Q30.96-8.32 32.63-9.29L32.63-9.29Q35.08-10.76 35.08-13.70L35.08-13.70Q35.08-17.12 32.21-18.66L32.21-18.66Q30.61-19.57 27.04-19.57L27.04-19.57L18.38-19.57Q10.48-19.57 6.99-22.43L6.99-22.43Q4.82-24.25 3.60-26.97Q2.38-29.70 2.38-32.84L2.38-32.84Q2.38-37.74 5.24-41.79L5.24-41.79Q8.04-45.70 14.19-46.40L14.19-46.40Q16.28-46.61 20.40-46.61L20.40-46.61L43.54-46.61L43.54-38.29L22.64-38.29Q17.96-38.22 16.42-37.87L16.42-37.87Q13.28-37.11 13.28-33.12L13.28-33.12Q13.28-29.77 15.93-28.65L15.93-28.65Q17.68-27.81 21.80-27.81L21.80-27.81L29.28-27.81Q35.01-27.81 37.81-26.83L37.81-26.83Q42.77-25.16 44.65-20.96L44.65-20.96Q46.12-17.61 46.12-13.77L46.12-13.77Q46.12-9.50 44.16-6.15L44.16-6.15Q41.44-1.40 35.99-0.42L35.99-0.42Q33.33 0 27.95 0L27.95 0Z" transform="translate(188.18684000000002 269.66692) " fill="#000000" stroke="#000000" stroke-width="0.116" ></path>
        <path class="st4" d="M14.67 0L4.75 0L4.75-46.61L14.67-46.61L14.67 0Z" transform="translate(236.75344 269.66692) " fill="#000000" stroke="#000000" stroke-width="0.116" ></path>
      </g>
    </g>
  </g>
</svg>